HIERARCHY
ROOT root
{
	OFFSET	0	13.1	24.9
	CHANNELS 6  Xposition Yposition Zposition Xrotation Yrotation Zrotation
	JOINT spine_1
	{
		OFFSET	0	9.99999	0
		CHANNELS 3  Xrotation Yrotation Zrotation
		JOINT spine_2
		{
			OFFSET	0	112	-10
			CHANNELS 3  Xrotation Yrotation Zrotation
			JOINT spine_3
			{
				OFFSET	0	206.5	19.3
				CHANNELS 3  Xrotation Yrotation Zrotation
				JOINT spine_4
				{
					OFFSET	0	110.4	14.6
					CHANNELS 3  Xrotation Yrotation Zrotation
					JOINT neck_1
					{
						OFFSET	0	71.8	-50.3
						CHANNELS 3  Xrotation Yrotation Zrotation
						JOINT neck_2
						{
							OFFSET	0	86.2	-25.8
							CHANNELS 3  Xrotation Yrotation Zrotation
							JOINT head_ee
							{
								OFFSET	0	179.8	-8.7
								CHANNELS 3  Xrotation Yrotation Zrotation
								End Site
								{
									OFFSET	1	0	0
								}
							}
						}
					}
					JOINT left_clavicle
					{
						OFFSET	-43.2	22.4	-70.8
						CHANNELS 3  Xrotation Yrotation Zrotation
						JOINT left_shoulder
						{
							OFFSET	-93.9	-5.79999	48.7
							CHANNELS 3  Xrotation Yrotation Zrotation
							JOINT left_elbow
							{
								OFFSET	-291.4	-30.8	15.2
								CHANNELS 3  Xrotation Yrotation Zrotation
								JOINT left_lowarm_twist
								{
									OFFSET	-110.7	-3.89999	13.6
									CHANNELS 3  Xrotation Yrotation Zrotation
									JOINT left_hand
									{
										OFFSET	-110.7	-3.89999	13.6
										CHANNELS 3  Xrotation Yrotation Zrotation
										JOINT left_ee
										{
											OFFSET	-80.8	-5.10001	12.1
											CHANNELS 3  Xrotation Yrotation Zrotation
											End Site
											{
												OFFSET	1	0	0
											}
										}
									}
								}
							}
						}
					}
					JOINT right_clavicle
					{
						OFFSET	43.2	22.4	-70.8
						CHANNELS 3  Xrotation Yrotation Zrotation
						JOINT right_shoulder
						{
							OFFSET	93.9	-5.79999	48.7
							CHANNELS 3  Xrotation Yrotation Zrotation
							JOINT right_elbow
							{
								OFFSET	291.4	-30.8	15.2
								CHANNELS 3  Xrotation Yrotation Zrotation
								JOINT right_lowarm_twist
								{
									OFFSET	110.7	-3.89999	13.6
									CHANNELS 3  Xrotation Yrotation Zrotation
									JOINT right_hand
									{
										OFFSET	110.7	-3.89999	13.6
										CHANNELS 3  Xrotation Yrotation Zrotation
										JOINT right_ee
										{
											OFFSET	80.8	-5.10001	12.1
											CHANNELS 3  Xrotation Yrotation Zrotation
											End Site
											{
												OFFSET	1	0	0
											}
										}
									}
								}
							}
						}
					}
				}
			}
		}
	}
	JOINT left_hip
	{
		OFFSET	-82.8	-127.5	0.300001
		CHANNELS 3  Xrotation Yrotation Zrotation
		JOINT left_knee
		{
			OFFSET	-28.2	-396.7	2.2
			CHANNELS 3  Xrotation Yrotation Zrotation
			JOINT left_ankle
			{
				OFFSET	-11.7	-411.3	35.4
				CHANNELS 3  Xrotation Yrotation Zrotation
				JOINT left_toes
				{
					OFFSET	0	-60	-88.6
					CHANNELS 3  Xrotation Yrotation Zrotation
					JOINT left_foot_ee
					{
						OFFSET	-22.5	-16.5	-42.2
						CHANNELS 3  Xrotation Yrotation Zrotation
						End Site
						{
							OFFSET	1	0	0
						}
					}
				}
			}
		}
	}
	JOINT right_hip
	{
		OFFSET	82.8	-127.5	0.300001
		CHANNELS 3  Xrotation Yrotation Zrotation
		JOINT right_knee
		{
			OFFSET	28.2	-396.7	2.2
			CHANNELS 3  Xrotation Yrotation Zrotation
			JOINT right_ankle
			{
				OFFSET	11.7	-411.3	35.4
				CHANNELS 3  Xrotation Yrotation Zrotation
				JOINT right_toes
				{
					OFFSET	0	-60	-88.6
					CHANNELS 3  Xrotation Yrotation Zrotation
					JOINT right_foot_ee
					{
						OFFSET	22.5	-16.5	-42.2
						CHANNELS 3  Xrotation Yrotation Zrotation
						End Site
						{
							OFFSET	1	0	0
						}
					}
				}
			}
		}
	}
}
MOTION
Frames: 9
Frame Time: 0.02
3557.75316826 729.274 -1483.76422491 -11.8991789221 51.5201176931 1.49544106164 3.50983 0.660575 3.52905 3.51665 0.43482 3.56388 3.54069 -0.102339 3.58881 3.52302 0.465365 3.56002 -5.17314 15.3775 -0.32796 -4.99955 28.5921 2.37014 -0.0 0.0 -0.0 -5.62332 23.243 -5.09334 -16.6845 -12.5603 67.8765 2.17552 -47.1353 0.949091 -42.8595 -3.26027 4.25838 -0.372645 5.71625 -0.0516685 -0.0 0.0 -0.0 13.9348 23.7089 -28.1107 -2.98243 12.6448 -72.0378 0.27962 7.88637 -0.0192743 56.6522 1.48511 6.79065 -1.18196 -12.2479 2.42211 0.0 0.0 0.0 19.6614 17.0066 -1.29196 -43.6764 -0.717066 6.50511 39.3273 7.20178 -4.80247 -28.4089 0.0 0.0 -0.0 0.0 -0.0 5.16904 12.3886 5.84036 -14.6267 -0.320936 -2.21562 40.3314 13.8224 5.15758 -20.6498 0.0 0.0 0.0 0.0 0.0 
3551.31732082 730.515 -1486.80219594 -13.6725766881 56.0893602405 4.23025894467 3.37718 0.603774 3.23128 3.3829 0.397047 3.26311 3.40321 -0.102684 3.28555 3.38839 0.417214 3.26059 -3.91442 15.0113 0.683281 -3.66827 26.9631 3.0457 -0.0 0.0 -0.0 -5.81602 23.3437 -5.33599 -18.0144 -13.4475 68.8578 1.8991 -43.2472 0.75287 -43.3268 -3.31171 4.28922 -0.133757 5.80417 1.54868 -0.0 0.0 -0.0 14.1107 25.0857 -28.3725 -2.36395 12.0228 -71.6668 0.401994 11.2625 -0.0396375 58.7221 1.66149 6.9888 -1.27715 -14.515 1.99894 0.0 0.0 0.0 24.0884 14.4348 -3.64311 -49.2132 -1.15434 7.23611 34.0518 6.13421 -4.30557 -25.1714 0.0 0.0 -0.0 0.0 -0.0 6.23418 9.85323 4.39475 -16.8466 -0.319853 -2.55619 40.5794 9.6746 5.06911 -17.3055 0.0 0.0 0.0 0.0 0.0 
3538.48612241 735.249 -1481.61864584 -20.3750659611 67.580508285 12.3059853883 3.1982 0.62712 2.87321 3.20268 0.443098 2.90725 3.22363 -0.0122973 2.94077 3.21184 0.452098 2.90587 -5.71392 15.2254 2.88296 -5.61287 26.0336 5.71605 -0.0 0.0 -0.0 -6.21003 23.554 -5.82849 -19.3656 -13.2979 71.6611 1.5485 -37.4885 0.5255 -43.8554 -3.37021 4.32361 0.0753081 7.91876 3.7833 -0.0 0.0 -0.0 13.9924 25.9928 -27.9862 -0.178943 11.6899 -70.6855 0.594966 16.4219 -0.0858527 58.849 1.67254 7.00074 -0.921689 -14.7649 -0.318479 0.0 0.0 0.0 31.7859 4.72638 -3.90493 -58.7244 -2.06383 8.38341 23.8605 6.81329 -3.19756 -24.5695 0.0 0.0 -0.0 0.0 -0.0 4.00322 9.2626 4.46629 -14.0014 -0.318859 -2.1197 39.5282 10.2769 4.99221 -5.52363 0.0 0.0 0.0 0.0 0.0 
3533.46253057 736.949 -1477.02043622 -33.7100826527 74.8149611037 26.9275978298 3.13255 0.515367 2.71284 3.13658 0.341764 2.74011 3.15159 -0.0901161 2.75985 3.14113 0.346715 2.73949 -8.0724 13.9117 3.42546 -8.11795 23.6074 6.46982 -0.0 0.0 -0.0 -5.81571 23.7077 -5.23168 -19.079 -12.859 71.6971 1.27652 -32.3059 0.369741 -43.4184 -3.32182 4.29522 0.362167 9.37783 6.22777 -0.0 0.0 -0.0 13.8479 25.9568 -27.6526 3.55084 10.7635 -69.4024 0.946233 25.1138 -0.210765 59.0259 1.68797 7.01734 -0.61683 -13.5201 -1.68501 0.0 0.0 0.0 33.9915 -1.42745 -2.12148 -58.4931 -2.03949 8.35734 17.8467 9.45431 -2.46201 -24.9464 0.0 0.0 -0.0 0.0 -0.0 4.82072 7.40279 2.41106 -14.0961 -0.319241 -2.13422 38.2319 3.77056 4.75896 1.77584 -0.0 -0.0 0.0 0.0 0.0 
3525.96229516 739.693 -1472.5637033 -46.5648536352 77.7865455775 40.3502315057 3.18238 0.550983 2.61984 3.18612 0.383219 2.64956 3.20257 -0.0325985 2.67691 3.19278 0.390428 2.64851 -6.56289 12.9963 1.47275 -6.53808 23.0536 4.04493 -0.0 0.0 -0.0 -6.18151 23.7708 -5.72399 -19.4673 -12.9282 72.521 1.14535 -29.5683 0.302284 -42.6883 -3.24149 4.24698 0.670136 9.28807 8.1903 -0.0 0.0 -0.0 13.6693 24.8999 -27.3591 4.07993 10.0123 -68.7064 1.11387 28.8882 -0.286916 59.5093 1.73044 7.06248 -0.337033 -12.9018 -3.18392 0.0 0.0 0.0 35.1184 -1.04368 -3.23575 -53.2621 -1.51799 7.74262 13.5118 7.57514 -1.8961 -27.8573 0.0 0.0 -0.0 0.0 -0.0 4.75132 6.94614 2.07126 -13.9099 -0.318467 -2.10566 36.8834 -1.97648 4.58553 2.54076 -0.0 -0.0 0.0 0.0 0.0 
3516.16526367 740.299 -1469.33419648 -55.2047271739 79.6603646975 49.4580091152 3.21139 0.539575 2.62926 3.21516 0.371235 2.65824 3.23107 -0.0444625 2.68365 3.22122 0.379776 2.65703 -6.23561 11.1303 1.13671 -6.2037 19.7853 3.28072 -0.0 0.0 -0.0 -6.4191 23.7134 -6.07394 -19.6425 -12.9324 73.5435 0.837909 -22.542 0.166992 -41.7826 -3.14271 4.18573 0.986715 8.92127 10.1175 -0.0 0.0 -0.0 13.4757 23.6205 -27.0435 4.83211 9.47381 -68.5559 1.41158 34.9614 -0.444568 59.2265 1.70555 7.03612 0.147384 -10.4868 -5.28443 0.0 0.0 0.0 35.4029 -1.20682 -3.7083 -47.1867 -0.986077 6.97342 15.4053 6.53324 -2.14597 -30.8149 0.0 0.0 -0.0 0.0 -0.0 4.50016 6.79126 1.66816 -14.9705 -0.321632 -2.26836 35.7806 -3.52065 4.4762 1.7539 -0.0 -0.0 0.0 0.0 0.0 
3507.22436108 740.032 -1466.23368256 -61.2644416567 79.917783742 56.0564264577 3.21189 0.604412 2.57693 3.21548 0.439268 2.61014 3.23426 0.0304166 2.64664 3.22476 0.447878 2.60867 -5.47915 10.2122 -0.466791 -5.4132 19.1822 1.36753 -0.0 0.0 -0.0 -6.27811 23.5694 -5.91955 -21.0278 -12.8657 73.5536 0.640667 -17.6079 0.0992265 -41.7367 -3.13772 4.18258 1.13309 8.31384 10.8505 -0.0 0.0 -0.0 13.4349 23.9279 -26.9166 5.72745 9.39551 -68.0136 1.6461 39.1917 -0.586052 60.0324 1.77681 7.11092 0.573168 -9.85357 -7.77966 0.0 0.0 0.0 36.946 -1.05897 -4.54579 -41.3518 -0.554997 6.18646 18.4145 6.40335 -2.53254 -32.4741 0.0 0.0 -0.0 0.0 -0.0 3.15524 5.5593 1.51114 -12.9293 -0.312863 -1.95532 38.3534 -1.81598 4.7204 2.71623 -0.0 -0.0 0.0 0.0 0.0 
3499.20575406 738.053 -1466.54103135 -66.0145957239 80.0413806208 61.1722533142 3.30738 0.697401 2.53044 3.31078 0.535024 2.56965 3.33354 0.135929 2.6212 3.32437 0.548056 2.5669 -5.39676 9.47359 -1.26125 -5.32412 18.4 0.413823 -0.0 0.0 -0.0 -6.21938 23.6257 -5.82023 -21.2083 -13.1431 73.3176 0.485119 -13.5129 0.0574734 -41.1904 -3.07864 4.14484 1.24689 8.90257 11.8222 -0.0 0.0 -0.0 13.4973 25.2314 -26.92 6.30121 9.56482 -67.4678 1.84272 42.3865 -0.714546 59.5297 1.73224 7.06438 0.970133 -9.64766 -10.2833 0.0 0.0 0.0 37.8624 -0.754487 -4.96659 -36.2168 -0.243789 5.4614 20.6782 8.13928 -2.81491 -33.9722 0.0 0.0 -0.0 0.0 -0.0 3.45261 5.14608 0.62457 -13.4843 -0.316351 -2.0404 38.0278 -4.71809 4.6831 1.26771 -0.0 -0.0 0.0 0.0 0.0 
3486.87373378 733.174 -1467.62951615 -77.9582971704 80.2593563258 73.5096904479 3.59004 0.747948 2.53321 3.59342 0.585293 2.57563 3.61822 0.197845 2.63383 3.60906 0.611189 2.56961 -6.01896 9.1827 -1.78989 -5.96255 18.2942 -0.0779312 -0.0 0.0 -0.0 -5.79525 23.605 -5.23241 -21.8502 -12.8979 71.6057 0.332244 -9.34637 0.0271589 -40.5796 -3.01301 4.10197 1.49916 10.2676 13.9889 -0.0 0.0 -0.0 13.3821 25.126 -26.6638 7.22783 9.61683 -67.4755 1.98339 44.4896 -0.811282 60.0834 1.78136 7.11562 1.21976 -8.01519 -11.3106 0.0 0.0 0.0 39.087 -0.607295 -5.58403 -30.785 0.0132 4.66795 28.6054 5.84429 -3.73726 -34.3002 0.0 0.0 -0.0 0.0 -0.0 2.10825 4.4406 -0.0634411 -12.2557 -0.307523 -1.8521 40.651 -5.22587 4.91376 1.15017 -0.0 -0.0 0.0 0.0 0.0 
